<svg height="24" viewBox="0 0 24 24" width="24" xmlns="http://www.w3.org/2000/svg"><path d="m16.8695652 2h-10.43478259c-.26086957 0-.43478261.17391304-.43478261.43478261v2.60869565c0 .26086957.17391304.43478261.43478261.43478261h1.73913043v3.47826087h2.17391306c.2608696 0 .4347826.17391304.4347826.43478261 0 .26086956-.173913.43478261-.4347826.43478261h-2.17391306v2.60869564h2.17391306c.2608696 0 .4347826.1739131.4347826.4347826 0 .2608696-.173913.4347826-.4347826.4347826h-2.17391306v2.6086957h2.17391306c.2608696 0 .4347826.173913.4347826.4347826s-.173913.4347826-.4347826.4347826h-2.17391306v1.7391304c0 1.9130435 1.56521739 3.4782609 3.47826086 3.4782609 1.9130435 0 3.4782609-1.5652174 3.4782609-3.4782609v-13.04347823h1.7391304c.2608696 0 .4347826-.17391304.4347826-.43478261v-2.60869565c0-.26086957-.173913-.43478261-.4347826-.43478261z" fill="#282828" fill-rule="evenodd"/></svg>