<svg width="1062" height="312" viewBox="0 0 1062 312" fill="none" xmlns="http://www.w3.org/2000/svg">
<path fill-rule="evenodd" clip-rule="evenodd" d="M20.3648 174.958L78.7225 275H194.665L252.188 174.959L194.617 74H78.7704L20.3648 174.958ZM2.37486 166.115C-0.803022 171.609 -0.79081 178.384 2.40686 183.866L62.1216 286.234C65.288 291.662 71.0993 295 77.3835 295H196.013C202.337 295 208.178 291.621 211.33 286.139L270.192 183.771C273.316 178.338 273.328 171.656 270.223 166.211L211.32 62.9163C208.176 57.4034 202.317 54 195.971 54H77.4258C71.1189 54 65.2902 57.3618 62.132 62.821L2.37486 166.115Z" fill="#1D2C48"/>
<mask id="mask0" mask-type="alpha" maskUnits="userSpaceOnUse" x="0" y="54" width="273" height="241">
<mask id="path-2-inside-1" mask-type="luminance" fill="white">
<path d="M2.40686 183.866C-0.79081 178.384 -0.803021 171.609 2.37487 166.115L62.132 62.821C65.2902 57.3618 71.1189 54 77.4259 54H195.971C202.317 54 208.176 57.4034 211.32 62.9163L270.223 166.211C273.328 171.656 273.316 178.338 270.192 183.771L211.33 286.139C208.178 291.621 202.337 295 196.013 295H77.3835C71.0993 295 65.288 291.662 62.1216 286.234L2.40686 183.866Z"/>
</mask>
<path d="M2.40686 183.866C-0.79081 178.384 -0.803021 171.609 2.37487 166.115L62.132 62.821C65.2902 57.3618 71.1189 54 77.4259 54H195.971C202.317 54 208.176 57.4034 211.32 62.9163L270.223 166.211C273.328 171.656 273.316 178.338 270.192 183.771L211.33 286.139C208.178 291.621 202.337 295 196.013 295H77.3835C71.0993 295 65.288 291.662 62.1216 286.234L2.40686 183.866Z" fill="#EF5F19"/>
<path d="M62.1216 286.234L58.3061 288.46L62.1216 286.234ZM211.33 286.139L207.501 283.937L211.33 286.139ZM270.223 166.211L274.06 164.023L270.223 166.211ZM270.192 183.771L274.021 185.973L270.192 183.771ZM211.32 62.9163L207.482 65.1044L211.32 62.9163ZM62.132 62.821L65.9554 65.033L62.132 62.821ZM2.37487 166.115L6.19834 168.327L2.37487 166.115ZM6.19834 168.327L65.9554 65.033L58.3085 60.6091L-1.44861 163.904L6.19834 168.327ZM77.4259 58.4172H195.971V49.5828H77.4259V58.4172ZM207.482 65.1044L266.386 168.399L274.06 164.023L215.157 60.7281L207.482 65.1044ZM266.362 181.569L207.501 283.937L215.16 288.34L274.021 185.973L266.362 181.569ZM196.013 290.583H77.3835V299.417H196.013V290.583ZM65.937 284.008L6.22233 181.64L-1.40862 186.092L58.3061 288.46L65.937 284.008ZM77.3835 290.583C72.6703 290.583 68.3119 288.079 65.937 284.008L58.3061 288.46C62.2641 295.245 69.5282 299.417 77.3835 299.417V290.583ZM207.501 283.937C205.137 288.048 200.756 290.583 196.013 290.583V299.417C203.918 299.417 211.219 295.193 215.16 288.34L207.501 283.937ZM266.386 168.399C268.715 172.483 268.706 177.494 266.362 181.569L274.021 185.973C277.926 179.181 277.941 170.829 274.06 164.023L266.386 168.399ZM195.971 58.4172C200.731 58.4172 205.125 60.9698 207.482 65.1044L215.157 60.7281C211.227 53.8371 203.904 49.5828 195.971 49.5828V58.4172ZM65.9554 65.033C68.3241 60.9386 72.6956 58.4172 77.4259 58.4172V49.5828C69.5422 49.5828 62.2563 53.7851 58.3085 60.6091L65.9554 65.033ZM-1.44861 163.904C-5.42096 170.77 -5.4057 179.239 -1.40862 186.092L6.22233 181.64C3.82408 177.529 3.81492 172.447 6.19834 168.327L-1.44861 163.904Z" fill="#EF5F19" mask="url(#path-2-inside-1)"/>
</mask>
<g mask="url(#mask0)">
<path d="M84.4 244.5C82.9333 244.5 81.6667 243.967 80.6 242.9C79.5333 241.833 79 240.567 79 239.1V109.9C79 108.433 79.5333 107.167 80.6 106.1C81.6667 105.033 82.9333 104.5 84.4 104.5H187C188.467 104.5 189.733 105.033 190.8 106.1C191.867 107.167 192.4 108.433 192.4 109.9V138.1C192.4 139.567 191.867 140.833 190.8 141.9C189.733 142.967 188.467 143.5 187 143.5H127V156.1H151.6C153.067 156.1 154.333 156.633 155.4 157.7C156.467 158.767 157 160.033 157 161.5V187.5C157 188.967 156.467 190.233 155.4 191.3C154.333 192.367 153.067 192.9 151.6 192.9H127V205.5H188.6C190.067 205.5 191.333 206.033 192.4 207.1C193.467 208.167 194 209.433 194 210.9V239.1C194 240.567 193.467 241.833 192.4 242.9C191.333 243.967 190.067 244.5 188.6 244.5H84.4Z" fill="#1D2C48"/>
<path d="M135 173.218C135 163.92 127.101 156.58 117.828 157.261L19.0754 164.513C13.9591 164.889 10 169.15 10 174.28C10 179.581 14.0879 183.985 19.3741 184.379L117.81 191.718C127.09 192.41 135 185.068 135 175.763V173.218Z" fill="#1D2C48"/>
</g>
<path fill-rule="evenodd" clip-rule="evenodd" d="M826.543 5.67725C833.741 3.95137 839.626 4.88985 844.196 8.48108C848.766 12.0752 847.865 18.4006 841.496 27.4571C835.126 36.5136 826.196 55.6 814.702 84.7105C803.209 113.824 795.731 134.491 792.272 146.709C788.807 158.929 788.533 163.386 791.441 160.08C794.348 156.773 797.22 153.792 800.06 151.131C802.895 148.472 806.046 145.738 809.511 142.934C812.97 140.133 816.121 138.082 818.962 136.789C821.797 135.496 824.948 134.526 828.412 133.878C831.871 133.233 835.023 133.735 837.863 135.389C840.698 137.042 842.915 139.163 844.51 141.749C846.099 144.338 847.07 149.01 847.417 155.765C847.762 162.526 847.381 169.604 846.273 177.007C845.165 184.414 845.095 189.984 846.066 193.72C847.034 197.459 848.8 200.766 851.363 203.64C853.924 206.516 858.321 207.199 864.553 205.688C869.064 204.595 872.826 202.878 875.884 200.58C876.016 200.127 876.128 199.673 876.287 199.217C877.466 195.841 881.896 189.083 889.581 178.948C897.265 168.814 904.673 160.51 911.804 154.042C918.935 147.572 926.516 142.071 934.548 137.545C942.577 133.015 948.185 130.249 951.373 129.241C954.558 128.381 958.053 128.238 961.862 128.811C965.668 129.386 968.715 130.609 971.002 132.477C973.286 134.346 975.466 138.012 977.545 143.475C979.621 148.94 978.687 152.604 974.741 154.472C970.795 156.343 967.227 155.695 964.042 152.531C960.857 149.37 957.532 148.725 954.073 150.59C950.612 152.462 947.183 154.365 943.792 156.306C940.397 158.246 936.21 161.303 931.226 165.47C926.242 169.642 921.118 174.959 915.856 181.427C910.592 187.897 907.684 192.032 907.13 193.828C906.576 195.626 907.928 195.373 911.183 193.072C914.435 190.774 919.419 187.287 926.135 182.615C932.852 177.943 941.298 173.163 951.476 168.273C961.655 163.386 968.094 161.48 970.795 162.558C973.493 163.636 975.81 165.615 977.752 168.488C979.689 171.368 980.797 173.846 981.074 175.93C981.351 178.016 981.04 179.669 980.139 180.889C979.238 182.112 978.2 184.879 977.024 189.19C975.846 193.505 975.95 197.674 977.335 201.699C978.72 205.726 980.483 208.492 982.633 210C984.779 211.511 987.721 211.941 991.459 211.296C995.198 210.648 999.802 207.701 1005.27 202.454C1010.74 197.207 1010.5 198.43 1004.55 206.118C998.59 213.812 993.883 218.702 990.421 220.782C986.959 222.868 984.259 223.877 982.322 223.801C980.38 223.731 977.856 223.083 974.741 221.86C971.623 220.64 968.682 218.734 965.911 216.148C963.141 213.559 960.961 210.398 959.368 206.658C957.776 202.922 956.701 200.156 956.15 198.357C955.596 196.559 954.314 194.583 952.307 192.427C950.298 190.268 947.841 189.803 944.933 191.024C942.026 192.247 936.938 195.588 929.667 201.051C922.399 206.516 915.613 211.008 909.313 214.529C903.011 218.054 897.369 220.497 892.385 221.86C887.401 223.229 884.179 223.693 882.727 223.263C881.272 222.831 879.679 221.215 877.95 218.411C876.22 215.607 875.216 212.554 874.938 209.247C874.911 208.91 874.922 208.573 874.908 208.239C874.342 208.832 873.788 209.433 873.173 210C869.501 213.379 865.034 216.328 859.776 218.841C854.512 221.36 850.222 222.653 846.897 222.723C843.575 222.799 840.18 221.36 836.719 218.411C833.257 215.465 830.903 211.223 829.658 205.688C828.412 200.156 828.133 191.564 828.827 179.919C829.518 168.273 828.723 161.338 826.437 159.109C824.153 156.881 818.268 159.432 808.783 166.765C799.296 174.096 792.132 182.365 787.285 191.564C782.438 200.766 778.839 208.564 776.485 214.959C774.129 221.36 771.221 224.054 767.762 223.048C764.297 222.043 761.6 220.39 759.66 218.089C757.721 215.79 756.752 212.519 756.752 208.277C756.752 206.167 757.782 201.039 759.836 192.909C755.045 197.64 750.537 201.864 746.367 205.473C740.137 210.863 734.596 214.82 729.752 217.333C724.902 219.849 720.125 221.61 715.421 222.616C710.711 223.624 705.066 223.908 698.492 223.478C691.913 223.048 685.683 219.634 679.798 213.236C673.912 206.839 671.002 199.255 671.075 190.486C671.142 181.717 672.457 174.311 675.02 168.273C677.581 162.236 681.494 156.306 686.755 150.483C688.132 148.96 689.774 147.452 691.661 145.956C689.525 146.055 686.523 146.162 682.602 146.279C667.923 146.709 659.578 147.322 657.574 148.112C655.565 148.902 654.734 151.453 655.081 155.765C655.425 160.08 655.705 164.644 655.912 169.459C656.119 174.276 656.153 179.631 656.015 185.526C655.876 191.422 655.461 195.806 654.77 198.68C654.076 201.556 653.038 204.575 651.652 207.736C650.267 210.9 648.227 214.242 645.526 217.763C642.826 221.288 639.504 224.556 635.555 227.575C631.609 230.594 627.974 232.86 624.652 234.368C621.327 235.879 617.726 235.952 613.852 234.583C609.974 233.221 606.822 231.062 604.402 228.116C601.975 225.169 600.039 222.113 598.583 218.949C597.131 215.79 596.507 210.253 596.717 202.347C596.924 194.441 597.755 188.078 599.207 183.26C600.663 178.446 602.91 173.416 605.958 168.166C609.002 162.919 609.904 160.475 608.658 160.835C607.413 161.196 607.099 161.015 607.723 160.295C607.997 159.98 608.611 159.207 609.565 157.977L610.422 156.868C611.562 155.388 613.043 153.45 614.863 151.055C609.156 152.557 604.141 153.839 599.832 154.902C592.838 156.628 587.507 159.432 583.838 163.314C580.166 167.195 575.977 172.155 571.272 178.193C566.562 184.231 561.161 191.994 555.071 201.484C548.976 210.97 544.96 217.441 543.024 220.89C541.084 224.341 538.591 227.218 535.546 229.516C532.498 231.817 529.176 232.105 525.577 230.379C521.976 228.653 519.345 226.067 517.683 222.616C516.023 219.167 515.052 215.143 514.775 210.54C514.498 205.941 513.115 199.903 510.622 192.427C508.128 184.951 505.117 177.763 501.585 170.862C498.056 163.962 497.225 158.784 499.095 155.335C500.964 151.883 503.835 149.873 507.714 149.297C511.59 148.725 514.912 150.16 517.683 153.609C520.453 157.061 523.084 162.489 525.577 169.892C528.068 177.298 529.66 182.903 530.354 186.712C531.046 190.521 532.431 191.707 534.508 190.268C536.584 188.833 543.024 180.494 553.823 165.255C564.626 150.018 570.648 141.714 571.894 140.348C573.142 138.983 574.524 137.725 576.049 136.574C577.572 135.281 579.441 134.671 581.658 134.741C583.871 134.813 585.811 135.676 587.473 137.33C589.135 138.983 591.212 141.101 593.703 143.69C596.196 146.279 599.655 147.97 604.088 148.757C607.018 149.28 611.308 149.161 616.903 148.426C620.116 144.32 622.791 141.191 624.859 139.163C627.49 136.574 630.708 134.924 634.517 134.2C638.326 133.483 641.477 133.701 643.968 134.848C646.461 136.002 648.571 138.05 650.304 140.993C652.033 143.943 656.36 145.343 663.286 145.201C670.207 145.058 678.827 145.093 689.145 145.308C690.427 145.334 691.515 145.363 692.411 145.392C697.678 141.357 704.766 137.411 713.758 133.555C727.188 128.093 736.326 126.727 741.176 129.459C746.02 132.19 748.41 136.286 748.34 141.749C748.27 147.214 743.459 150.16 733.905 150.59C724.351 151.023 716.112 153.647 709.188 158.461C702.262 163.279 697.764 170.322 695.688 179.596C693.611 188.868 695.341 195.876 700.879 200.621C706.418 205.365 712.026 207.559 717.704 207.199C723.38 206.839 728.4 205.941 732.763 204.502C737.123 203.067 742.214 200.693 748.029 197.387C751.998 195.129 756.33 192.134 760.973 188.508C762.996 180.802 765.736 170.984 769.214 159.002C777.523 130.394 787.008 102.431 797.67 75.1135C808.333 47.8016 814.562 31.1965 816.365 25.3012C818.161 19.4088 821.556 12.8684 826.543 5.67725ZM475.089 127.395C478.165 126.683 481.698 126.896 485.684 128.038C489.673 129.181 490.372 133.319 487.785 140.455C485.195 147.591 482.363 156.866 479.287 168.282C476.208 179.701 473.308 188.977 470.58 196.109C467.852 203.248 464.81 209.42 461.452 214.626C458.096 219.838 454.876 222.656 451.8 223.083C448.722 223.51 446.587 223.403 445.4 222.763C444.213 222.12 444.105 218.803 445.086 212.806C446.064 206.813 448.128 197.647 451.277 185.299C454.424 172.958 457.395 162.22 460.194 153.085C460.251 152.897 460.304 152.716 460.354 152.54L460.646 151.499C455.382 152.854 450.706 154.031 446.661 155.009C439.596 156.722 434.208 159.506 430.504 163.359C426.795 167.212 422.563 172.136 417.811 178.129C413.053 184.123 407.597 191.829 401.446 201.249C395.289 210.666 391.232 217.09 389.276 220.513C387.317 223.94 384.798 226.795 381.722 229.076C378.643 231.361 375.288 231.646 371.652 229.933C368.011 228.22 365.357 225.653 363.677 222.226C362.001 218.803 361.02 214.808 360.74 210.239C360.46 205.674 359.061 199.68 356.545 192.259C354.026 184.838 350.984 177.702 347.416 170.852C343.852 164.002 343.012 158.862 344.9 155.439C346.789 152.012 349.689 150.016 353.608 149.445C357.523 148.877 360.879 150.302 363.677 153.725C366.476 157.152 369.133 162.54 371.652 169.889C374.168 177.241 375.777 182.804 376.478 186.586C377.176 190.367 378.576 191.544 380.673 190.116C382.771 188.691 389.276 180.413 400.185 165.286C411.097 150.161 417.181 141.917 418.439 140.562C419.7 139.206 421.096 137.957 422.637 136.815C424.175 135.532 426.063 134.926 428.302 134.995C430.538 135.067 432.498 135.924 434.177 137.565C435.856 139.206 437.954 141.309 440.47 143.879C442.988 146.449 446.483 148.127 450.961 148.909C453.457 149.347 456.94 149.324 461.347 148.877C462.893 142.543 462.563 139.241 460.298 139.062C457.57 138.849 458.619 137.029 463.445 133.605C468.27 130.179 472.152 128.111 475.089 127.395ZM635.245 173.018C632.197 169.136 628.391 170.214 623.821 176.252C619.251 182.29 616.517 188.688 615.615 195.446C614.714 202.204 615.061 206.949 616.656 209.677C618.246 212.408 619.908 213.989 621.641 214.422C623.37 214.852 625.827 213.667 629.015 210.863C632.197 208.059 634.794 201.986 636.803 192.642C638.81 183.298 638.289 176.758 635.245 173.018ZM497.097 59.4788C500.987 58.5529 504.491 59.447 507.603 62.1553C510.715 64.7251 512.594 70.3263 513.229 78.9587C513.867 87.594 516.802 96.013 522.04 104.219C527.274 112.427 533.433 118.954 540.509 123.805C547.586 128.659 554.062 132.083 559.935 134.079C565.807 136.08 565.633 136.542 559.406 135.472C553.175 134.402 546.985 131.907 540.83 127.979C534.671 124.056 528.055 118.207 520.978 110.425C513.902 102.65 508.736 96.9388 505.481 93.3018C502.225 89.6619 499.926 87.6286 498.581 87.2017C497.234 86.772 496.104 86.4518 495.186 86.2384C494.262 86.0221 492.139 84.5973 488.816 81.9554C485.489 79.3163 484.285 76.0687 485.206 72.2154C486.127 68.3621 487.363 65.5096 488.922 63.6522C490.478 61.8005 493.201 60.4075 497.097 59.4788Z" fill="#1D2C48"/>
<path d="M519.583 301.616C519.299 301.616 519.072 301.531 518.902 301.361C518.731 301.162 518.646 300.921 518.646 300.637V272.845C518.646 272.533 518.731 272.292 518.902 272.122C519.072 271.923 519.299 271.824 519.583 271.824H537.075C537.387 271.824 537.628 271.923 537.798 272.122C537.997 272.292 538.096 272.533 538.096 272.845V274.378C538.096 274.661 537.997 274.888 537.798 275.059C537.628 275.229 537.387 275.314 537.075 275.314H522.562V284.805H536.138C536.451 284.805 536.692 284.904 536.862 285.103C537.061 285.273 537.16 285.514 537.16 285.826V287.273C537.16 287.557 537.061 287.798 536.862 287.997C536.692 288.167 536.451 288.252 536.138 288.252H522.562V298.084H537.415C537.727 298.084 537.968 298.183 538.139 298.381C538.337 298.552 538.437 298.793 538.437 299.105V300.637C538.437 300.921 538.337 301.162 538.139 301.361C537.94 301.531 537.699 301.616 537.415 301.616H519.583Z" fill="#1D2C48"/>
<path d="M542.585 301.616C542.358 301.616 542.159 301.531 541.989 301.361C541.819 301.19 541.734 300.992 541.734 300.765C541.734 300.566 541.79 300.382 541.904 300.212L551.65 286.465L542.372 273.229C542.259 273.058 542.202 272.874 542.202 272.675C542.202 272.448 542.287 272.25 542.457 272.079C542.627 271.909 542.826 271.824 543.053 271.824H545.479C545.876 271.824 546.245 272.065 546.586 272.548L554.204 283.315L561.737 272.548C562.021 272.065 562.389 271.824 562.843 271.824H565.099C565.326 271.824 565.525 271.909 565.695 272.079C565.865 272.25 565.95 272.448 565.95 272.675C565.95 272.874 565.894 273.058 565.78 273.229L556.587 286.507L566.333 300.212C566.447 300.382 566.504 300.566 566.504 300.765C566.504 300.992 566.404 301.19 566.206 301.361C566.035 301.531 565.837 301.616 565.61 301.616H563.184C562.758 301.616 562.389 301.389 562.077 300.935L554.034 289.699L546.032 300.935C545.72 301.389 545.351 301.616 544.926 301.616H542.585Z" fill="#1D2C48"/>
<path d="M578.755 301.616C578.471 301.616 578.23 301.531 578.031 301.361C577.861 301.162 577.776 300.921 577.776 300.637V275.484H569.562C569.278 275.484 569.037 275.399 568.838 275.229C568.668 275.03 568.583 274.789 568.583 274.505V272.845C568.583 272.533 568.668 272.292 568.838 272.122C569.037 271.923 569.278 271.824 569.562 271.824H589.991C590.303 271.824 590.544 271.923 590.714 272.122C590.885 272.292 590.97 272.533 590.97 272.845V274.505C590.97 274.789 590.87 275.03 590.672 275.229C590.501 275.399 590.274 275.484 589.991 275.484H581.819V300.637C581.819 300.921 581.72 301.162 581.521 301.361C581.323 301.531 581.082 301.616 580.798 301.616H578.755Z" fill="#1D2C48"/>
<path d="M596.764 301.616C596.48 301.616 596.253 301.531 596.083 301.361C595.913 301.162 595.828 300.921 595.828 300.637V272.845C595.828 272.533 595.913 272.292 596.083 272.122C596.253 271.923 596.48 271.824 596.764 271.824H614.256C614.568 271.824 614.81 271.923 614.98 272.122C615.178 272.292 615.278 272.533 615.278 272.845V274.378C615.278 274.661 615.178 274.888 614.98 275.059C614.81 275.229 614.568 275.314 614.256 275.314H599.743V284.805H613.32C613.632 284.805 613.873 284.904 614.043 285.103C614.242 285.273 614.341 285.514 614.341 285.826V287.273C614.341 287.557 614.242 287.798 614.043 287.997C613.873 288.167 613.632 288.252 613.32 288.252H599.743V298.084H614.597C614.909 298.084 615.15 298.183 615.32 298.381C615.519 298.552 615.618 298.793 615.618 299.105V300.637C615.618 300.921 615.519 301.162 615.32 301.361C615.122 301.531 614.88 301.616 614.597 301.616H596.764Z" fill="#1D2C48"/>
<path d="M622.533 301.616C622.249 301.616 622.022 301.531 621.852 301.361C621.682 301.162 621.597 300.921 621.597 300.637V272.845C621.597 272.533 621.682 272.292 621.852 272.122C622.022 271.923 622.249 271.824 622.533 271.824H624.405C624.689 271.824 624.902 271.881 625.044 271.994C625.186 272.108 625.328 272.25 625.47 272.42L639.727 294.381V272.845C639.727 272.533 639.812 272.292 639.982 272.122C640.181 271.923 640.422 271.824 640.706 271.824H642.621C642.933 271.824 643.174 271.923 643.345 272.122C643.543 272.292 643.643 272.533 643.643 272.845V300.595C643.643 300.878 643.543 301.12 643.345 301.318C643.174 301.517 642.947 301.616 642.664 301.616H640.749C640.266 301.616 639.926 301.417 639.727 301.02L625.47 279.272V300.637C625.47 300.921 625.37 301.162 625.172 301.361C625.001 301.531 624.774 301.616 624.491 301.616H622.533Z" fill="#1D2C48"/>
<path d="M660.597 302.042C658.27 302.042 656.241 301.673 654.511 300.935C652.808 300.197 651.503 299.233 650.595 298.041C649.716 296.821 649.247 295.516 649.191 294.125C649.191 293.898 649.276 293.7 649.446 293.53C649.616 293.359 649.829 293.274 650.084 293.274H652.17C652.681 293.274 653.035 293.558 653.234 294.125C653.489 295.317 654.213 296.353 655.404 297.232C656.625 298.084 658.355 298.509 660.597 298.509C663.009 298.509 664.81 298.084 666.002 297.232C667.194 296.381 667.789 295.204 667.789 293.7C667.789 292.735 667.492 291.941 666.896 291.317C666.328 290.692 665.463 290.153 664.3 289.699C663.165 289.217 661.448 288.635 659.15 287.954C656.965 287.33 655.22 286.663 653.915 285.954C652.638 285.245 651.673 284.379 651.021 283.358C650.368 282.308 650.042 280.989 650.042 279.4C650.042 277.868 650.453 276.506 651.276 275.314C652.099 274.094 653.291 273.143 654.851 272.462C656.412 271.753 658.256 271.398 660.384 271.398C662.597 271.398 664.484 271.796 666.044 272.59C667.633 273.356 668.839 274.335 669.662 275.527C670.485 276.69 670.925 277.868 670.981 279.059C670.981 279.315 670.896 279.527 670.726 279.698C670.556 279.868 670.343 279.953 670.088 279.953H667.96C667.733 279.953 667.52 279.882 667.321 279.74C667.123 279.598 666.981 279.386 666.896 279.102C666.725 277.882 666.044 276.874 664.853 276.08C663.661 275.286 662.172 274.888 660.384 274.888C658.455 274.888 656.922 275.271 655.788 276.037C654.653 276.775 654.085 277.882 654.085 279.357C654.085 280.35 654.34 281.159 654.851 281.783C655.39 282.407 656.199 282.961 657.277 283.443C658.384 283.925 659.987 284.479 662.086 285.103C664.498 285.784 666.385 286.465 667.747 287.146C669.137 287.827 670.173 288.678 670.854 289.699C671.535 290.692 671.875 291.983 671.875 293.572C671.875 296.239 670.854 298.325 668.811 299.829C666.796 301.304 664.058 302.042 660.597 302.042Z" fill="#1D2C48"/>
<path d="M678.434 301.616C678.151 301.616 677.924 301.531 677.753 301.361C677.583 301.162 677.498 300.921 677.498 300.637V272.803C677.498 272.519 677.583 272.292 677.753 272.122C677.924 271.923 678.151 271.824 678.434 271.824H680.562C680.875 271.824 681.116 271.909 681.286 272.079C681.456 272.25 681.541 272.491 681.541 272.803V300.637C681.541 300.921 681.442 301.162 681.243 301.361C681.073 301.531 680.846 301.616 680.562 301.616H678.434Z" fill="#1D2C48"/>
<path d="M699.692 302.042C696.004 302.042 693.152 301.077 691.138 299.148C689.123 297.19 688.059 294.253 687.946 290.338C687.918 289.486 687.903 288.281 687.903 286.72C687.903 285.16 687.918 283.968 687.946 283.145C688.059 279.286 689.152 276.364 691.223 274.378C693.323 272.392 696.146 271.398 699.692 271.398C703.239 271.398 706.048 272.392 708.119 274.378C710.191 276.364 711.283 279.286 711.396 283.145C711.453 284.791 711.482 285.982 711.482 286.72C711.482 287.429 711.453 288.635 711.396 290.338C711.283 294.253 710.219 297.19 708.204 299.148C706.218 301.077 703.381 302.042 699.692 302.042ZM699.692 298.509C701.962 298.509 703.778 297.828 705.14 296.466C706.502 295.076 707.24 292.962 707.353 290.125C707.41 288.422 707.438 287.288 707.438 286.72C707.438 286.096 707.41 284.961 707.353 283.315C707.24 280.478 706.502 278.364 705.14 276.974C703.778 275.584 701.962 274.888 699.692 274.888C697.423 274.888 695.593 275.584 694.202 276.974C692.84 278.364 692.117 280.478 692.032 283.315C692.003 284.138 691.989 285.273 691.989 286.72C691.989 288.139 692.003 289.274 692.032 290.125C692.117 292.962 692.84 295.076 694.202 296.466C695.564 297.828 697.394 298.509 699.692 298.509Z" fill="#1D2C48"/>
<path d="M718.708 301.616C718.425 301.616 718.198 301.531 718.028 301.361C717.857 301.162 717.772 300.921 717.772 300.637V272.845C717.772 272.533 717.857 272.292 718.028 272.122C718.198 271.923 718.425 271.824 718.708 271.824H720.581C720.865 271.824 721.078 271.881 721.22 271.994C721.361 272.108 721.503 272.25 721.645 272.42L735.903 294.381V272.845C735.903 272.533 735.988 272.292 736.158 272.122C736.357 271.923 736.598 271.824 736.882 271.824H738.797C739.109 271.824 739.35 271.923 739.52 272.122C739.719 272.292 739.818 272.533 739.818 272.845V300.595C739.818 300.878 739.719 301.12 739.52 301.318C739.35 301.517 739.123 301.616 738.839 301.616H736.924C736.442 301.616 736.101 301.417 735.903 301.02L721.645 279.272V300.637C721.645 300.921 721.546 301.162 721.347 301.361C721.177 301.531 720.95 301.616 720.666 301.616H718.708Z" fill="#1D2C48"/>
<path d="M767.246 302.042C764.92 302.042 762.891 301.673 761.16 300.935C759.458 300.197 758.153 299.233 757.245 298.041C756.365 296.821 755.897 295.516 755.84 294.125C755.84 293.898 755.925 293.7 756.095 293.53C756.266 293.359 756.478 293.274 756.734 293.274H758.819C759.33 293.274 759.685 293.558 759.883 294.125C760.139 295.317 760.862 296.353 762.054 297.232C763.274 298.084 765.005 298.509 767.246 298.509C769.658 298.509 771.46 298.084 772.651 297.232C773.843 296.381 774.439 295.204 774.439 293.7C774.439 292.735 774.141 291.941 773.545 291.317C772.978 290.692 772.112 290.153 770.949 289.699C769.814 289.217 768.097 288.635 765.799 287.954C763.614 287.33 761.869 286.663 760.564 285.954C759.287 285.245 758.323 284.379 757.67 283.358C757.018 282.308 756.691 280.989 756.691 279.4C756.691 277.868 757.103 276.506 757.926 275.314C758.748 274.094 759.94 273.143 761.501 272.462C763.061 271.753 764.905 271.398 767.033 271.398C769.246 271.398 771.133 271.796 772.694 272.59C774.283 273.356 775.489 274.335 776.311 275.527C777.134 276.69 777.574 277.868 777.631 279.059C777.631 279.315 777.546 279.527 777.375 279.698C777.205 279.868 776.992 279.953 776.737 279.953H774.609C774.382 279.953 774.169 279.882 773.971 279.74C773.772 279.598 773.63 279.386 773.545 279.102C773.375 277.882 772.694 276.874 771.502 276.08C770.31 275.286 768.821 274.888 767.033 274.888C765.104 274.888 763.572 275.271 762.437 276.037C761.302 276.775 760.734 277.882 760.734 279.357C760.734 280.35 760.99 281.159 761.501 281.783C762.04 282.407 762.848 282.961 763.926 283.443C765.033 283.925 766.636 284.479 768.736 285.103C771.147 285.784 773.034 286.465 774.396 287.146C775.787 287.827 776.822 288.678 777.503 289.699C778.184 290.692 778.525 291.983 778.525 293.572C778.525 296.239 777.503 298.325 775.46 299.829C773.446 301.304 770.708 302.042 767.246 302.042Z" fill="#1D2C48"/>
<path d="M785.084 301.616C784.8 301.616 784.573 301.531 784.403 301.361C784.233 301.162 784.147 300.921 784.147 300.637V272.845C784.147 272.533 784.233 272.292 784.403 272.122C784.573 271.923 784.8 271.824 785.084 271.824H794.702C798.987 271.824 802.079 272.789 803.98 274.718C805.881 276.619 806.86 279.499 806.917 283.358C806.945 284.181 806.96 285.287 806.96 286.677C806.96 288.068 806.945 289.189 806.917 290.04C806.86 292.735 806.421 294.934 805.598 296.637C804.803 298.311 803.541 299.559 801.81 300.382C800.079 301.205 797.781 301.616 794.915 301.616H785.084ZM794.702 298.084C796.688 298.084 798.263 297.814 799.427 297.275C800.618 296.707 801.469 295.842 801.98 294.679C802.519 293.487 802.817 291.884 802.874 289.869C802.931 288.167 802.959 287.103 802.959 286.677C802.959 286.224 802.931 285.174 802.874 283.528C802.817 280.691 802.136 278.619 800.831 277.314C799.554 275.981 797.44 275.314 794.49 275.314H788.148V298.084H794.702Z" fill="#1D2C48"/>
<path d="M814.385 301.616C814.102 301.616 813.875 301.531 813.704 301.361C813.534 301.162 813.449 300.921 813.449 300.637V272.845C813.449 272.533 813.534 272.292 813.704 272.122C813.875 271.923 814.102 271.824 814.385 271.824H816.386C816.698 271.824 816.939 271.923 817.109 272.122C817.308 272.292 817.407 272.533 817.407 272.845V283.443L828.941 272.505C829.395 272.051 829.948 271.824 830.601 271.824H832.729C832.956 271.824 833.154 271.909 833.325 272.079C833.495 272.25 833.58 272.448 833.58 272.675C833.58 272.902 833.509 273.087 833.367 273.229L820.088 286.082L834.261 300.169C834.403 300.339 834.474 300.538 834.474 300.765C834.474 300.992 834.389 301.19 834.218 301.361C834.048 301.531 833.849 301.616 833.622 301.616H831.409C831.012 301.616 830.7 301.559 830.473 301.446C830.246 301.304 830.005 301.134 829.75 300.935L817.407 288.891V300.637C817.407 300.921 817.308 301.162 817.109 301.361C816.911 301.531 816.669 301.616 816.386 301.616H814.385Z" fill="#1D2C48"/>
</svg>
