<svg width="1062" height="313" viewBox="0 0 1062 313" fill="none" xmlns="http://www.w3.org/2000/svg">
<mask id="path-1-inside-1" fill="white">
<path fill-rule="evenodd" clip-rule="evenodd" d="M20.3648 175.958L78.7225 276H194.665L252.188 175.959L194.617 75H78.7704L20.3648 175.958ZM2.37487 167.115C-0.803021 172.609 -0.79081 179.384 2.40686 184.866L62.1216 287.234C65.288 292.662 71.0993 296 77.3835 296H196.013C202.337 296 208.178 292.621 211.33 287.139L270.192 184.771C273.316 179.338 273.328 172.656 270.223 167.211L211.32 63.9163C208.176 58.4034 202.317 55 195.971 55H77.4258C71.1189 55 65.2902 58.3618 62.132 63.821L2.37487 167.115Z"/>
</mask>
<path fill-rule="evenodd" clip-rule="evenodd" d="M20.3648 175.958L78.7225 276H194.665L252.188 175.959L194.617 75H78.7704L20.3648 175.958ZM2.37487 167.115C-0.803021 172.609 -0.79081 179.384 2.40686 184.866L62.1216 287.234C65.288 292.662 71.0993 296 77.3835 296H196.013C202.337 296 208.178 292.621 211.33 287.139L270.192 184.771C273.316 179.338 273.328 172.656 270.223 167.211L211.32 63.9163C208.176 58.4034 202.317 55 195.971 55H77.4258C71.1189 55 65.2902 58.3618 62.132 63.821L2.37487 167.115Z" fill="#EF5F19"/>
<path d="M78.7225 276L74.907 278.226L76.1854 280.417H78.7225V276ZM20.3648 175.958L16.5413 173.746L15.2564 175.968L16.5493 178.184L20.3648 175.958ZM194.665 276V280.417H197.22L198.494 278.202L194.665 276ZM252.188 175.959L256.018 178.161L257.278 175.968L256.025 173.771L252.188 175.959ZM194.617 75L198.454 72.8119L197.183 70.5828H194.617V75ZM78.7704 75V70.5828H76.2227L74.947 72.7881L78.7704 75ZM2.40686 184.866L6.22233 182.64L2.40686 184.866ZM2.37487 167.115L6.19833 169.327L6.19834 169.327L2.37487 167.115ZM62.1216 287.234L65.937 285.008V285.008L62.1216 287.234ZM211.33 287.139L207.501 284.937V284.937L211.33 287.139ZM270.192 184.771L274.021 186.973V186.973L270.192 184.771ZM270.223 167.211L266.386 169.399V169.399L270.223 167.211ZM211.32 63.9163L207.482 66.1044H207.482L211.32 63.9163ZM62.132 63.821L58.3085 61.6091H58.3085L62.132 63.821ZM82.5379 273.774L24.1803 173.733L16.5493 178.184L74.907 278.226L82.5379 273.774ZM194.665 271.583H78.7225V280.417H194.665V271.583ZM248.359 173.757L190.835 273.798L198.494 278.202L256.018 178.161L248.359 173.757ZM190.78 77.1881L248.351 178.147L256.025 173.771L198.454 72.8119L190.78 77.1881ZM78.7704 79.4172H194.617V70.5828H78.7704V79.4172ZM24.1883 178.17L82.5939 77.2119L74.947 72.7881L16.5413 173.746L24.1883 178.17ZM6.22233 182.64C3.82408 178.529 3.81492 173.447 6.19833 169.327L-1.4486 164.904C-5.42097 171.77 -5.4057 180.239 -1.40862 187.092L6.22233 182.64ZM65.937 285.008L6.22233 182.64L-1.40862 187.092L58.3061 289.46L65.937 285.008ZM77.3835 291.583C72.6703 291.583 68.3119 289.079 65.937 285.008L58.3061 289.46C62.2641 296.245 69.5282 300.417 77.3835 300.417V291.583ZM196.013 291.583H77.3835V300.417H196.013V291.583ZM207.501 284.937C205.137 289.048 200.756 291.583 196.013 291.583V300.417C203.918 300.417 211.219 296.193 215.16 289.34L207.501 284.937ZM266.362 182.569L207.501 284.937L215.16 289.34L274.021 186.973L266.362 182.569ZM266.386 169.399C268.715 173.483 268.706 178.494 266.362 182.569L274.021 186.973C277.926 180.181 277.941 171.829 274.06 165.023L266.386 169.399ZM207.482 66.1044L266.386 169.399L274.06 165.023L215.157 61.7281L207.482 66.1044ZM195.971 59.4172C200.731 59.4172 205.125 61.9698 207.482 66.1044L215.157 61.7281C211.227 54.8371 203.904 50.5828 195.971 50.5828V59.4172ZM77.4258 59.4172H195.971V50.5828H77.4258V59.4172ZM65.9554 66.033C68.3241 61.9386 72.6956 59.4172 77.4258 59.4172V50.5828C69.5422 50.5828 62.2563 54.7851 58.3085 61.6091L65.9554 66.033ZM6.19834 169.327L65.9554 66.033L58.3085 61.6091L-1.44861 164.904L6.19834 169.327Z" fill="#EF5F19" mask="url(#path-1-inside-1)"/>
<mask id="mask0" mask-type="alpha" maskUnits="userSpaceOnUse" x="0" y="55" width="273" height="241">
<mask id="path-3-inside-2" mask-type="luminance" fill="white">
<path d="M2.40686 184.866C-0.79081 179.384 -0.803021 172.609 2.37487 167.115L62.132 63.821C65.2902 58.3618 71.1189 55 77.4259 55H195.971C202.317 55 208.176 58.4034 211.32 63.9163L270.223 167.211C273.328 172.656 273.316 179.338 270.192 184.771L211.33 287.139C208.178 292.621 202.337 296 196.013 296H77.3835C71.0993 296 65.288 292.662 62.1216 287.234L2.40686 184.866Z"/>
</mask>
<path d="M2.40686 184.866C-0.79081 179.384 -0.803021 172.609 2.37487 167.115L62.132 63.821C65.2902 58.3618 71.1189 55 77.4259 55H195.971C202.317 55 208.176 58.4034 211.32 63.9163L270.223 167.211C273.328 172.656 273.316 179.338 270.192 184.771L211.33 287.139C208.178 292.621 202.337 296 196.013 296H77.3835C71.0993 296 65.288 292.662 62.1216 287.234L2.40686 184.866Z" fill="#EF5F19"/>
<path d="M62.1216 287.234L58.3061 289.46L62.1216 287.234ZM211.33 287.139L207.501 284.937L211.33 287.139ZM270.223 167.211L274.06 165.023L270.223 167.211ZM270.192 184.771L274.021 186.973L270.192 184.771ZM211.32 63.9163L207.482 66.1044L211.32 63.9163ZM62.132 63.821L65.9554 66.033L62.132 63.821ZM2.37487 167.115L6.19834 169.327L2.37487 167.115ZM6.19834 169.327L65.9554 66.033L58.3085 61.6091L-1.44861 164.904L6.19834 169.327ZM77.4259 59.4172H195.971V50.5828H77.4259V59.4172ZM207.482 66.1044L266.386 169.399L274.06 165.023L215.157 61.7281L207.482 66.1044ZM266.362 182.569L207.501 284.937L215.16 289.34L274.021 186.973L266.362 182.569ZM196.013 291.583H77.3835V300.417H196.013V291.583ZM65.937 285.008L6.22233 182.64L-1.40862 187.092L58.3061 289.46L65.937 285.008ZM77.3835 291.583C72.6703 291.583 68.3119 289.079 65.937 285.008L58.3061 289.46C62.2641 296.245 69.5282 300.417 77.3835 300.417V291.583ZM207.501 284.937C205.137 289.048 200.756 291.583 196.013 291.583V300.417C203.918 300.417 211.219 296.193 215.16 289.34L207.501 284.937ZM266.386 169.399C268.715 173.483 268.706 178.494 266.362 182.569L274.021 186.973C277.926 180.181 277.941 171.829 274.06 165.023L266.386 169.399ZM195.971 59.4172C200.731 59.4172 205.125 61.9698 207.482 66.1044L215.157 61.7281C211.227 54.8371 203.904 50.5828 195.971 50.5828V59.4172ZM65.9554 66.033C68.3241 61.9386 72.6956 59.4172 77.4259 59.4172V50.5828C69.5422 50.5828 62.2563 54.7851 58.3085 61.6091L65.9554 66.033ZM-1.44861 164.904C-5.42096 171.77 -5.4057 180.239 -1.40862 187.092L6.22233 182.64C3.82408 178.529 3.81492 173.447 6.19834 169.327L-1.44861 164.904Z" fill="#EF5F19" mask="url(#path-3-inside-2)"/>
</mask>
<g mask="url(#mask0)">
<path d="M85.4 244.5C83.9333 244.5 82.6667 243.967 81.6 242.9C80.5333 241.833 80 240.567 80 239.1V109.9C80 108.433 80.5333 107.167 81.6 106.1C82.6667 105.033 83.9333 104.5 85.4 104.5H188C189.467 104.5 190.733 105.033 191.8 106.1C192.867 107.167 193.4 108.433 193.4 109.9V138.1C193.4 139.567 192.867 140.833 191.8 141.9C190.733 142.967 189.467 143.5 188 143.5H128V156.1H183.6C185.067 156.1 186.333 156.633 187.4 157.7C188.467 158.767 189 160.033 189 161.5V187.5C189 188.967 188.467 190.233 187.4 191.3C186.333 192.367 185.067 192.9 183.6 192.9H128V205.5H189.6C191.067 205.5 192.333 206.033 193.4 207.1C194.467 208.167 195 209.433 195 210.9V239.1C195 240.567 194.467 241.833 193.4 242.9C192.333 243.967 191.067 244.5 189.6 244.5H85.4Z" fill="#EF5F19"/>
<path d="M125 168.097C125 164.558 121.953 161.788 118.431 162.124L22.7004 171.244C21.1692 171.39 19.9999 172.676 19.9999 174.214C19.9999 175.981 21.342 177.46 23.1009 177.63L118.422 186.85C121.948 187.191 125 184.42 125 180.878V168.097Z" fill="#EF5F19" stroke="#EF5F19" stroke-width="20"/>
</g>
<path fill-rule="evenodd" clip-rule="evenodd" d="M826.543 1.71875C833.741 -0.00713062 839.626 0.931354 844.196 4.52259C848.766 8.11672 847.865 14.4421 841.496 23.4986C835.126 32.5551 826.196 51.6415 814.702 80.752C803.209 109.865 795.731 130.532 792.272 142.75C788.807 154.971 788.533 159.428 791.441 156.121C794.348 152.815 797.22 149.834 800.06 147.172C802.895 144.514 806.046 141.78 809.511 138.976C812.97 136.175 816.121 134.124 818.962 132.831C821.797 131.538 824.948 130.567 828.413 129.919C831.872 129.274 835.023 129.777 837.863 131.43C840.698 133.083 842.915 135.204 844.51 137.79C846.099 140.379 847.071 145.051 847.418 151.807C847.762 158.568 847.381 165.646 846.273 173.049C845.165 180.455 845.095 186.025 846.066 189.762C847.034 193.501 848.8 196.807 851.364 199.681C853.924 202.558 858.321 203.24 864.553 201.729C869.064 200.637 872.826 198.92 875.885 196.622C876.016 196.168 876.128 195.715 876.288 195.259C877.466 191.883 881.896 185.124 889.581 174.99C897.266 164.855 904.673 156.551 911.804 150.084C918.935 143.613 926.516 138.113 934.548 133.586C942.577 129.056 948.185 126.29 951.373 125.282C954.558 124.422 958.053 124.28 961.862 124.852C965.668 125.427 968.716 126.651 971.002 128.519C973.286 130.387 975.466 134.054 977.545 139.516C979.622 144.982 978.687 148.645 974.741 150.514C970.795 152.385 967.227 151.737 964.042 148.573C960.857 145.412 957.533 144.767 954.074 146.632C950.612 148.503 947.183 150.406 943.792 152.347C940.397 154.288 936.21 157.345 931.226 161.511C926.242 165.683 921.118 171.001 915.856 177.468C910.592 183.939 907.685 188.073 907.13 189.869C906.576 191.668 907.928 191.415 911.183 189.114C914.435 186.815 919.419 183.329 926.135 178.657C932.852 173.985 941.298 169.205 951.476 164.315C961.655 159.428 968.094 157.522 970.795 158.6C973.493 159.678 975.81 161.656 977.752 164.53C979.689 167.409 980.797 169.888 981.074 171.971C981.351 174.057 981.04 175.71 980.139 176.931C979.238 178.154 978.2 180.92 977.025 185.232C975.846 189.547 975.95 193.716 977.335 197.74C978.72 201.767 980.484 204.533 982.633 206.041C984.779 207.552 987.721 207.982 991.459 207.337C995.198 206.689 999.802 203.743 1005.27 198.496C1010.74 193.248 1010.5 194.471 1004.55 202.159C998.59 209.853 993.883 214.743 990.421 216.824C986.959 218.91 984.259 219.918 982.322 219.842C980.38 219.773 977.856 219.125 974.741 217.902C971.623 216.681 968.682 214.775 965.911 212.189C963.141 209.6 960.961 206.439 959.368 202.7C957.776 198.963 956.701 196.197 956.15 194.399C955.596 192.6 954.314 190.625 952.308 188.469C950.298 186.31 947.841 185.845 944.933 187.065C942.026 188.288 936.938 191.63 929.667 197.092C922.399 202.558 915.613 207.049 909.313 210.571C903.011 214.095 897.369 216.539 892.385 217.902C887.401 219.27 884.179 219.735 882.727 219.305C881.272 218.872 879.679 217.257 877.95 214.453C876.22 211.649 875.216 208.595 874.939 205.289C874.911 204.952 874.922 204.615 874.908 204.28C874.343 204.873 873.788 205.475 873.173 206.041C869.501 209.42 865.034 212.369 859.776 214.883C854.512 217.402 850.222 218.695 846.897 218.765C843.575 218.84 840.18 217.402 836.719 214.453C833.257 211.507 830.903 207.264 829.658 201.729C828.413 196.197 828.133 187.606 828.827 175.96C829.518 164.315 828.723 157.379 826.437 155.151C824.153 152.922 818.268 155.473 808.783 162.807C799.296 170.138 792.132 178.407 787.285 187.606C782.438 196.807 778.839 204.606 776.485 211.001C774.129 217.402 771.221 220.095 767.762 219.09C764.298 218.085 761.6 216.431 759.66 214.13C757.721 211.832 756.753 208.56 756.753 204.318C756.753 202.209 757.782 197.081 759.837 188.951C755.045 193.681 750.537 197.906 746.367 201.514C740.138 206.904 734.596 210.861 729.752 213.375C724.902 215.891 720.125 217.652 715.421 218.657C710.711 219.665 705.066 219.95 698.492 219.52C691.913 219.09 685.683 215.676 679.798 209.278C673.912 202.88 671.002 195.297 671.075 186.528C671.142 177.759 672.457 170.353 675.021 164.315C677.581 158.277 681.494 152.347 686.755 146.524C688.132 145.002 689.775 143.494 691.661 141.998C689.526 142.096 686.523 142.204 682.602 142.32C667.923 142.75 659.578 143.363 657.574 144.154C655.565 144.944 654.734 147.495 655.081 151.807C655.425 156.121 655.705 160.686 655.912 165.5C656.119 170.318 656.153 175.673 656.016 181.568C655.876 187.463 655.461 191.848 654.77 194.721C654.076 197.598 653.038 200.617 651.653 203.778C650.267 206.942 648.227 210.283 645.527 213.805C642.826 217.329 639.504 220.598 635.555 223.617C631.609 226.636 627.974 228.902 624.652 230.41C621.327 231.921 617.726 231.993 613.852 230.625C609.974 229.262 606.822 227.103 604.402 224.157C601.975 221.211 600.039 218.154 598.584 214.99C597.131 211.832 596.507 206.294 596.717 198.388C596.924 190.482 597.755 184.119 599.208 179.302C600.663 174.487 602.91 169.458 605.958 164.207C609.003 158.96 609.904 156.517 608.658 156.877C607.413 157.237 607.1 157.057 607.724 156.336C607.997 156.022 608.611 155.249 609.566 154.018L610.422 152.909C611.563 151.429 613.043 149.491 614.863 147.097C609.156 148.599 604.141 149.88 599.832 150.944C592.838 152.67 587.507 155.473 583.838 159.355C580.166 163.237 575.977 168.197 571.272 174.234C566.562 180.272 561.161 188.036 555.071 197.525C548.976 207.012 544.96 213.482 543.024 216.931C541.084 220.383 538.591 223.259 535.546 225.558C532.498 227.859 529.176 228.146 525.577 226.421C521.976 224.695 519.345 222.109 517.683 218.657C516.023 215.208 515.052 211.184 514.775 206.582C514.498 201.982 513.115 195.945 510.622 188.469C508.128 180.993 505.117 173.804 501.585 166.904C498.056 160.003 497.225 154.826 499.095 151.377C500.964 147.925 503.835 145.914 507.714 145.339C511.59 144.767 514.912 146.202 517.683 149.651C520.453 153.103 523.084 158.53 525.577 165.933C528.068 173.34 529.661 178.944 530.355 182.753C531.046 186.563 532.431 187.748 534.508 186.31C536.584 184.874 543.024 176.536 553.823 161.296C564.626 146.06 570.648 137.756 571.894 136.39C573.142 135.024 574.524 133.766 576.049 132.616C577.572 131.323 579.441 130.713 581.658 130.782C583.871 130.855 585.811 131.718 587.473 133.371C589.136 135.024 591.212 137.142 593.703 139.731C596.196 142.32 599.655 144.011 604.088 144.799C607.018 145.322 611.309 145.202 616.903 144.467C620.116 140.362 622.791 137.233 624.859 135.204C627.49 132.616 630.708 130.965 634.517 130.242C638.326 129.524 641.477 129.742 643.968 130.89C646.461 132.043 648.571 134.092 650.304 137.035C652.033 139.984 656.36 141.385 663.286 141.242C670.207 141.1 678.827 141.135 689.145 141.35C690.427 141.376 691.515 141.405 692.411 141.434C697.678 137.398 704.767 133.452 713.758 129.597C727.189 124.134 736.326 122.769 741.176 125.5C746.02 128.231 748.41 132.328 748.34 137.79C748.27 143.256 743.459 146.202 733.905 146.632C724.351 147.065 716.112 149.689 709.188 154.503C702.262 159.32 697.764 166.363 695.688 175.638C693.611 184.909 695.341 191.917 700.879 196.662C706.418 201.407 712.026 203.601 717.704 203.24C723.38 202.88 728.4 201.982 732.763 200.544C737.124 199.109 742.214 196.735 748.029 193.428C751.998 191.171 756.33 188.175 760.973 184.549C762.996 176.844 765.736 167.026 769.215 155.043C777.523 126.436 787.008 98.4728 797.67 71.155C808.333 43.8431 814.562 27.238 816.365 21.3427C818.161 15.4503 821.556 8.90993 826.543 1.71875ZM475.089 123.437C478.165 122.724 481.699 122.938 485.685 124.08C489.673 125.222 490.372 129.361 487.785 136.497C485.196 143.632 482.363 152.908 479.287 164.324C476.209 175.743 473.308 185.018 470.58 192.151C467.852 199.29 464.81 205.462 461.452 210.668C458.096 215.88 454.876 218.698 451.8 219.124C448.722 219.551 446.587 219.445 445.4 218.804C444.213 218.161 444.105 214.844 445.086 208.848C446.064 202.854 448.128 193.688 451.277 181.341C454.424 168.999 457.395 158.261 460.194 149.127C460.251 148.938 460.304 148.758 460.354 148.581L460.646 147.54C455.382 148.896 450.706 150.073 446.661 151.05C439.596 152.764 434.208 155.547 430.505 159.4C426.796 163.254 422.564 168.177 417.811 174.171C413.054 180.164 407.598 187.871 401.446 197.291C395.289 206.708 391.232 213.131 389.276 216.555C387.317 219.981 384.798 222.837 381.722 225.118C378.644 227.402 375.288 227.688 371.652 225.975C368.011 224.261 365.357 221.694 363.677 218.268C362.001 214.844 361.02 210.85 360.74 206.281C360.46 201.715 359.061 195.722 356.545 188.301C354.026 180.879 350.984 173.744 347.417 166.894C343.852 160.044 343.012 154.904 344.901 151.48C346.789 148.054 349.689 146.058 353.608 145.487C357.523 144.919 360.879 146.343 363.677 149.767C366.476 153.193 369.134 158.581 371.652 165.93C374.168 173.282 375.777 178.846 376.478 182.627C377.176 186.408 378.576 187.585 380.673 186.158C382.771 184.733 389.276 176.455 400.185 161.327C411.097 146.202 417.181 137.959 418.439 136.603C419.7 135.248 421.096 133.999 422.637 132.857C424.175 131.573 426.063 130.967 428.302 131.037C430.539 131.109 432.498 131.965 434.177 133.607C435.856 135.248 437.954 137.35 440.47 139.92C442.989 142.49 446.483 144.169 450.961 144.95C453.457 145.389 456.94 145.366 461.347 144.919C462.893 138.585 462.563 135.282 460.298 135.104C457.57 134.89 458.619 133.07 463.445 129.646C468.27 126.22 472.152 124.152 475.089 123.437ZM635.245 169.06C632.197 165.178 628.391 166.256 623.821 172.294C619.251 178.331 616.517 184.729 615.616 191.487C614.714 198.246 615.061 202.99 616.657 205.719C618.246 208.45 619.909 210.031 621.641 210.463C623.37 210.893 625.828 209.708 629.015 206.904C632.197 204.1 634.794 198.028 636.803 188.684C638.81 179.339 638.289 172.799 635.245 169.06ZM497.097 55.5203C500.987 54.5944 504.491 55.4885 507.603 58.1968C510.715 60.7666 512.595 66.3678 513.23 75.0002C513.867 83.6355 516.802 92.0545 522.04 100.26C527.274 108.468 533.433 114.995 540.51 119.847C547.586 124.701 554.062 128.124 559.935 130.12C565.807 132.122 565.633 132.583 559.406 131.513C553.176 130.443 546.986 127.948 540.83 124.02C534.671 120.098 528.055 114.248 520.979 106.467C513.902 98.691 508.736 92.9803 505.481 89.3433C502.226 85.7035 499.926 83.6701 498.581 83.2432C497.234 82.8135 496.104 82.4933 495.186 82.2799C494.262 82.0636 492.14 80.6388 488.816 77.9969C485.489 75.3578 484.285 72.1102 485.206 68.2569C486.127 64.4036 487.363 61.5511 488.922 59.6937C490.478 57.842 493.201 56.449 497.097 55.5203Z" fill="#1D2C48"/>
<path d="M521.122 296C520.838 296 520.611 295.915 520.441 295.745C520.271 295.546 520.186 295.305 520.186 295.021V267.229C520.186 266.917 520.271 266.676 520.441 266.506C520.611 266.307 520.838 266.208 521.122 266.208H538.614C538.926 266.208 539.168 266.307 539.338 266.506C539.536 266.676 539.636 266.917 539.636 267.229V268.762C539.636 269.045 539.536 269.272 539.338 269.443C539.168 269.613 538.926 269.698 538.614 269.698H524.101V279.189H537.678C537.99 279.189 538.231 279.288 538.401 279.487C538.6 279.657 538.699 279.898 538.699 280.21V281.657C538.699 281.941 538.6 282.182 538.401 282.381C538.231 282.551 537.99 282.636 537.678 282.636H524.101V292.468H538.955C539.267 292.468 539.508 292.567 539.678 292.765C539.877 292.936 539.976 293.177 539.976 293.489V295.021C539.976 295.305 539.877 295.546 539.678 295.745C539.48 295.915 539.239 296 538.955 296H521.122ZM544.124 296C543.897 296 543.699 295.915 543.529 295.745C543.358 295.574 543.273 295.376 543.273 295.149C543.273 294.95 543.33 294.766 543.444 294.596L553.19 280.849L543.912 267.612C543.798 267.442 543.741 267.258 543.741 267.059C543.741 266.832 543.827 266.634 543.997 266.463C544.167 266.293 544.366 266.208 544.593 266.208H547.019C547.416 266.208 547.785 266.449 548.125 266.932L555.743 277.699L563.276 266.932C563.56 266.449 563.929 266.208 564.383 266.208H566.639C566.866 266.208 567.064 266.293 567.235 266.463C567.405 266.634 567.49 266.832 567.49 267.059C567.49 267.258 567.433 267.442 567.32 267.612L558.127 280.891L567.873 294.596C567.986 294.766 568.043 294.95 568.043 295.149C568.043 295.376 567.944 295.574 567.745 295.745C567.575 295.915 567.376 296 567.149 296H564.724C564.298 296 563.929 295.773 563.617 295.319L555.573 284.083L547.572 295.319C547.26 295.773 546.891 296 546.465 296H544.124ZM580.294 296C580.011 296 579.77 295.915 579.571 295.745C579.401 295.546 579.316 295.305 579.316 295.021V269.868H571.102C570.818 269.868 570.577 269.783 570.378 269.613C570.208 269.414 570.123 269.173 570.123 268.889V267.229C570.123 266.917 570.208 266.676 570.378 266.506C570.577 266.307 570.818 266.208 571.102 266.208H591.53C591.842 266.208 592.084 266.307 592.254 266.506C592.424 266.676 592.509 266.917 592.509 267.229V268.889C592.509 269.173 592.41 269.414 592.211 269.613C592.041 269.783 591.814 269.868 591.53 269.868H583.359V295.021C583.359 295.305 583.26 295.546 583.061 295.745C582.862 295.915 582.621 296 582.337 296H580.294ZM598.304 296C598.02 296 597.793 295.915 597.623 295.745C597.452 295.546 597.367 295.305 597.367 295.021V267.229C597.367 266.917 597.452 266.676 597.623 266.506C597.793 266.307 598.02 266.208 598.304 266.208H615.796C616.108 266.208 616.349 266.307 616.519 266.506C616.718 266.676 616.817 266.917 616.817 267.229V268.762C616.817 269.045 616.718 269.272 616.519 269.443C616.349 269.613 616.108 269.698 615.796 269.698H601.283V279.189H614.86C615.172 279.189 615.413 279.288 615.583 279.487C615.782 279.657 615.881 279.898 615.881 280.21V281.657C615.881 281.941 615.782 282.182 615.583 282.381C615.413 282.551 615.172 282.636 614.86 282.636H601.283V292.468H616.136C616.448 292.468 616.69 292.567 616.86 292.765C617.058 292.936 617.158 293.177 617.158 293.489V295.021C617.158 295.305 617.058 295.546 616.86 295.745C616.661 295.915 616.42 296 616.136 296H598.304ZM624.072 296C623.789 296 623.562 295.915 623.391 295.745C623.221 295.546 623.136 295.305 623.136 295.021V267.229C623.136 266.917 623.221 266.676 623.391 266.506C623.562 266.307 623.789 266.208 624.072 266.208H625.945C626.229 266.208 626.442 266.265 626.583 266.378C626.725 266.492 626.867 266.634 627.009 266.804L641.267 288.765V267.229C641.267 266.917 641.352 266.676 641.522 266.506C641.721 266.307 641.962 266.208 642.246 266.208H644.161C644.473 266.208 644.714 266.307 644.884 266.506C645.083 266.676 645.182 266.917 645.182 267.229V294.979C645.182 295.262 645.083 295.503 644.884 295.702C644.714 295.901 644.487 296 644.203 296H642.288C641.806 296 641.465 295.801 641.267 295.404L627.009 273.656V295.021C627.009 295.305 626.91 295.546 626.711 295.745C626.541 295.915 626.314 296 626.03 296H624.072ZM662.136 296.426C659.81 296.426 657.781 296.057 656.05 295.319C654.348 294.581 653.043 293.617 652.135 292.425C651.255 291.205 650.787 289.9 650.73 288.509C650.73 288.282 650.815 288.084 650.986 287.914C651.156 287.743 651.369 287.658 651.624 287.658H653.71C654.22 287.658 654.575 287.942 654.774 288.509C655.029 289.701 655.752 290.737 656.944 291.616C658.164 292.468 659.895 292.893 662.136 292.893C664.548 292.893 666.35 292.468 667.542 291.616C668.733 290.765 669.329 289.588 669.329 288.084C669.329 287.119 669.031 286.325 668.435 285.7C667.868 285.076 667.002 284.537 665.839 284.083C664.704 283.601 662.988 283.019 660.689 282.338C658.505 281.714 656.76 281.047 655.454 280.338C654.178 279.629 653.213 278.763 652.56 277.742C651.908 276.692 651.582 275.373 651.582 273.784C651.582 272.252 651.993 270.89 652.816 269.698C653.639 268.478 654.83 267.527 656.391 266.846C657.951 266.137 659.796 265.782 661.924 265.782C664.137 265.782 666.024 266.18 667.584 266.974C669.173 267.74 670.379 268.719 671.202 269.911C672.024 271.074 672.464 272.252 672.521 273.443C672.521 273.699 672.436 273.911 672.266 274.082C672.095 274.252 671.883 274.337 671.627 274.337H669.499C669.272 274.337 669.059 274.266 668.861 274.124C668.662 273.982 668.52 273.769 668.435 273.486C668.265 272.266 667.584 271.258 666.392 270.464C665.201 269.67 663.711 269.272 661.924 269.272C659.994 269.272 658.462 269.655 657.327 270.421C656.192 271.159 655.625 272.266 655.625 273.741C655.625 274.734 655.88 275.543 656.391 276.167C656.93 276.791 657.739 277.345 658.817 277.827C659.923 278.309 661.526 278.863 663.626 279.487C666.038 280.168 667.925 280.849 669.286 281.53C670.677 282.211 671.712 283.062 672.393 284.083C673.074 285.076 673.415 286.367 673.415 287.956C673.415 290.623 672.393 292.709 670.35 294.212C668.336 295.688 665.598 296.426 662.136 296.426ZM679.974 296C679.69 296 679.463 295.915 679.293 295.745C679.123 295.546 679.038 295.305 679.038 295.021V267.187C679.038 266.903 679.123 266.676 679.293 266.506C679.463 266.307 679.69 266.208 679.974 266.208H682.102C682.414 266.208 682.655 266.293 682.826 266.463C682.996 266.634 683.081 266.875 683.081 267.187V295.021C683.081 295.305 682.982 295.546 682.783 295.745C682.613 295.915 682.386 296 682.102 296H679.974ZM701.232 296.426C697.544 296.426 694.692 295.461 692.677 293.532C690.663 291.574 689.599 288.637 689.485 284.722C689.457 283.87 689.443 282.665 689.443 281.104C689.443 279.543 689.457 278.352 689.485 277.529C689.599 273.67 690.691 270.748 692.763 268.762C694.862 266.775 697.685 265.782 701.232 265.782C704.779 265.782 707.588 266.775 709.659 268.762C711.73 270.748 712.823 273.67 712.936 277.529C712.993 279.175 713.021 280.366 713.021 281.104C713.021 281.813 712.993 283.019 712.936 284.722C712.823 288.637 711.759 291.574 709.744 293.532C707.758 295.461 704.921 296.426 701.232 296.426ZM701.232 292.893C703.502 292.893 705.318 292.212 706.68 290.85C708.042 289.46 708.779 287.346 708.893 284.509C708.95 282.806 708.978 281.671 708.978 281.104C708.978 280.48 708.95 279.345 708.893 277.699C708.779 274.862 708.042 272.748 706.68 271.358C705.318 269.967 703.502 269.272 701.232 269.272C698.962 269.272 697.132 269.967 695.742 271.358C694.38 272.748 693.656 274.862 693.571 277.699C693.543 278.522 693.529 279.657 693.529 281.104C693.529 282.523 693.543 283.658 693.571 284.509C693.656 287.346 694.38 289.46 695.742 290.85C697.104 292.212 698.934 292.893 701.232 292.893ZM720.248 296C719.964 296 719.737 295.915 719.567 295.745C719.397 295.546 719.312 295.305 719.312 295.021V267.229C719.312 266.917 719.397 266.676 719.567 266.506C719.737 266.307 719.964 266.208 720.248 266.208H722.121C722.404 266.208 722.617 266.265 722.759 266.378C722.901 266.492 723.043 266.634 723.185 266.804L737.442 288.765V267.229C737.442 266.917 737.527 266.676 737.698 266.506C737.896 266.307 738.137 266.208 738.421 266.208H740.336C740.648 266.208 740.89 266.307 741.06 266.506C741.259 266.676 741.358 266.917 741.358 267.229V294.979C741.358 295.262 741.259 295.503 741.06 295.702C740.89 295.901 740.663 296 740.379 296H738.464C737.981 296 737.641 295.801 737.442 295.404L723.185 273.656V295.021C723.185 295.305 723.085 295.546 722.887 295.745C722.717 295.915 722.49 296 722.206 296H720.248ZM768.786 296.426C766.459 296.426 764.43 296.057 762.7 295.319C760.997 294.581 759.692 293.617 758.784 292.425C757.905 291.205 757.436 289.9 757.38 288.509C757.38 288.282 757.465 288.084 757.635 287.914C757.805 287.743 758.018 287.658 758.273 287.658H760.359C760.87 287.658 761.224 287.942 761.423 288.509C761.678 289.701 762.402 290.737 763.593 291.616C764.813 292.468 766.544 292.893 768.786 292.893C771.197 292.893 772.999 292.468 774.191 291.616C775.383 290.765 775.978 289.588 775.978 288.084C775.978 287.119 775.68 286.325 775.085 285.7C774.517 285.076 773.652 284.537 772.488 284.083C771.354 283.601 769.637 283.019 767.339 282.338C765.154 281.714 763.409 281.047 762.104 280.338C760.827 279.629 759.862 278.763 759.21 277.742C758.557 276.692 758.231 275.373 758.231 273.784C758.231 272.252 758.642 270.89 759.465 269.698C760.288 268.478 761.48 267.527 763.04 266.846C764.601 266.137 766.445 265.782 768.573 265.782C770.786 265.782 772.673 266.18 774.233 266.974C775.822 267.74 777.028 268.719 777.851 269.911C778.674 271.074 779.114 272.252 779.17 273.443C779.17 273.699 779.085 273.911 778.915 274.082C778.745 274.252 778.532 274.337 778.277 274.337H776.149C775.922 274.337 775.709 274.266 775.51 274.124C775.312 273.982 775.17 273.769 775.085 273.486C774.914 272.266 774.233 271.258 773.042 270.464C771.85 269.67 770.36 269.272 768.573 269.272C766.644 269.272 765.111 269.655 763.976 270.421C762.842 271.159 762.274 272.266 762.274 273.741C762.274 274.734 762.529 275.543 763.04 276.167C763.579 276.791 764.388 277.345 765.466 277.827C766.573 278.309 768.176 278.863 770.275 279.487C772.687 280.168 774.574 280.849 775.936 281.53C777.326 282.211 778.362 283.062 779.043 284.083C779.724 285.076 780.064 286.367 780.064 287.956C780.064 290.623 779.043 292.709 777 294.212C774.985 295.688 772.247 296.426 768.786 296.426ZM786.623 296C786.34 296 786.113 295.915 785.942 295.745C785.772 295.546 785.687 295.305 785.687 295.021V267.229C785.687 266.917 785.772 266.676 785.942 266.506C786.113 266.307 786.34 266.208 786.623 266.208H796.242C800.526 266.208 803.619 267.173 805.52 269.102C807.421 271.003 808.4 273.883 808.457 277.742C808.485 278.565 808.499 279.671 808.499 281.061C808.499 282.452 808.485 283.572 808.457 284.424C808.4 287.119 807.96 289.318 807.137 291.02C806.343 292.695 805.08 293.943 803.349 294.766C801.619 295.589 799.32 296 796.455 296H786.623ZM796.242 292.468C798.228 292.468 799.803 292.198 800.966 291.659C802.158 291.091 803.009 290.226 803.52 289.063C804.059 287.871 804.357 286.268 804.413 284.253C804.47 282.551 804.499 281.487 804.499 281.061C804.499 280.607 804.47 279.558 804.413 277.912C804.357 275.075 803.676 273.003 802.371 271.698C801.094 270.365 798.98 269.698 796.029 269.698H789.688V292.468H796.242ZM815.925 296C815.641 296 815.414 295.915 815.244 295.745C815.074 295.546 814.989 295.305 814.989 295.021V267.229C814.989 266.917 815.074 266.676 815.244 266.506C815.414 266.307 815.641 266.208 815.925 266.208H817.925C818.237 266.208 818.479 266.307 818.649 266.506C818.847 266.676 818.947 266.917 818.947 267.229V277.827L830.48 266.889C830.934 266.435 831.488 266.208 832.14 266.208H834.268C834.495 266.208 834.694 266.293 834.864 266.463C835.034 266.634 835.12 266.832 835.12 267.059C835.12 267.286 835.049 267.471 834.907 267.612L821.628 280.466L835.8 294.553C835.942 294.723 836.013 294.922 836.013 295.149C836.013 295.376 835.928 295.574 835.758 295.745C835.588 295.915 835.389 296 835.162 296H832.949C832.552 296 832.24 295.943 832.013 295.83C831.786 295.688 831.544 295.518 831.289 295.319L818.947 283.275V295.021C818.947 295.305 818.847 295.546 818.649 295.745C818.45 295.915 818.209 296 817.925 296H815.925Z" fill="#1D2C48"/>
</svg>
